<svg xmlns="http://www.w3.org/2000/svg" viewBox="0 0 2244 400" width="2244" height="400" xmlns:c2pa="http://c2pa.org/manifest"><metadata><c2pa:manifest>AAAWgmp1bWIAAAAeanVtZGMycGEAEQAQgAAAqgA4m3EDYzJwYQAAABZcanVtYgAAAEdqdW1kYzJtYQARABCAAACqADibcQN1cm46YzJwYTo4NTlmZmU0Zi0zZWYwLTRjOWYtOGM2MC1hYTI4Mjc2NWVkOTkAAAADl2p1bWIAAAApanVtZGMyYXMAEQAQgAAAqgA4m3EDYzJwYS5hc3NlcnRpb25zAAAAALxqdW1iAAAARGp1bWRjYm9yABEAEIAAAKoAOJtxE2MycGEuaW5ncmVkaWVudC52MwAAAAAYYzJzaBRilHghdeCKLGclaASaH6oAAABwY2JvcqNpZGM6Zm9ybWF0bWltYWdlL3N2Zyt4bWxqaW5zdGFuY2VJRHgseG1wOmlpZDo2MGYyN2E5Ny0wNDY1LTQxODQtOTQxZC1hMjQzM2ZjNzg2NzNscmVsYXRpb25zaGlwaHBhcmVudE9mAAAB4mp1bWIAAABBanVtZGNib3IAEQAQgAAAqgA4m3ETYzJwYS5hY3Rpb25zLnYyAAAAABhjMnNoXTuj3QgFoZ26U/bX9+le9gAAAZljYm9yomdhY3Rpb25zgqJmYWN0aW9ua2MycGEub3BlbmVkanBhcmFtZXRlcnOha2luZ3JlZGllbnRzgaJjdXJseC1zZWxmI2p1bWJmPWMycGEuYXNzZXJ0aW9ucy9jMnBhLmluZ3JlZGllbnQudjNkaGFzaFggIpOOXnSZEvi63tbWcz3C3JtFOcLS0ltqzosyp/BiFXSkZmFjdGlvbngdY29tLmFudGhyb3BpYy5jbGF1ZGUucHJvdmlkZWRqcGFyYW1ldGVyc6F4H2NvbS5hbnRocm9waWMub3JpZ2luLWNvbmZpZGVuY2VndW5rbm93bmtkZXNjcmlwdGlvbnhmQ2xhdWRlIHByb3ZpZGVkIHRoaXMgZmlsZSBhdCB0aGUgcmVxdWVzdCBvZiBhIHVzZXIgYW5kIG1heSBoYXZlIGNyZWF0ZWQgb3IgbW9kaWZpZWQgdGhlIGZpbGUgY29udGVudHMubXNvZnR3YXJlQWdlbnShZG5hbWVmQ2xhdWRlcmFsbEFjdGlvbnNJbmNsdWRlZPUAAADIanVtYgAAAEBqdW1kY2JvcgARABCAAACqADibcRNjMnBhLmhhc2guZGF0YQAAAAAYYzJzaK1MyrGPNufITgjvdjPC6BUAAACAY2JvcqVjYWxnZnNoYTI1NmNwYWRNAAAAAAAAAAAAAAAAAGRoYXNoWCDLyuWQNhPlr/zlkqdmH/plgSxjlTYycvTbOzgrJkNd1WRuYW1lbmp1bWJmIG1hbmlmZXN0amV4Y2x1c2lvbnOBomVzdGFydBiYZmxlbmd0aBkeBAAAAj5qdW1iAAAAJ2p1bWRjMmNsABEAEIAAAKoAOJtxA2MycGEuY2xhaW0udjIAAAACD2Nib3KlY2FsZ2ZzaGEyNTZpc2lnbmF0dXJleE1zZWxmI2p1bWJmPS9jMnBhL3VybjpjMnBhOjg1OWZmZTRmLTNlZjAtNGM5Zi04YzYwLWFhMjgyNzY1ZWQ5OS9jMnBhLnNpZ25hdHVyZWppbnN0YW5jZUlEeCx4bXA6aWlkOjNhMGFhODY5LTBjNGEtNDA2NC1iYTBlLWU0OGQ1ZTk4ZmNhYXJjcmVhdGVkX2Fzc2VydGlvbnODomN1cmx4LXNlbGYjanVtYmY9YzJwYS5hc3NlcnRpb25zL2MycGEuaW5ncmVkaWVudC52M2RoYXNoWCAik45edJkS+Lre1tZzPcLcm0U5wtLSW2rOizKn8GIVdKJjdXJseCpzZWxmI2p1bWJmPWMycGEuYXNzZXJ0aW9ucy9jMnBhLmFjdGlvbnMudjJkaGFzaFggQCZoWdQLbI6bnkDAvvd8OI+kHg7mucgLJYpTj/L4WmyiY3VybHgpc2VsZiNqdW1iZj1jMnBhLmFzc2VydGlvbnMvYzJwYS5oYXNoLmRhdGFkaGFzaFgg5MzPDwaxg9Munp87iB+BEWjIg+Psh1cJ6k0SdsjG/zZ0Y2xhaW1fZ2VuZXJhdG9yX2luZm+jZG5hbWVvQW50aHJvcGljIEZpbGVzZ3ZlcnNpb25lMS4wLjBrc3BlY1ZlcnNpb25lMi40LjAAABA4anVtYgAAAChqdW1kYzJjcwARABCAAACqADibcQNjMnBhLnNpZ25hdHVyZQAAABAIY2JvctKEWQISogEmGCFZAgowggIGMIIBjaADAgECAhRA5aAK7sI50L64g/oGQgU9Z1UTADAKBggqhkjOPQQDAzBJMRcwFQYDVQQKEw5BbnRocm9waWMsIFBCQzEuMCwGA1UEAxMlQW50aHJvcGljIENvbnRlbnQgQ3JlZGVudGlhbHMgUm9vdCBDQTAeFw0yNjA4MDcxODQzNTZaFw0yODA4MDYxOTQzNTZaMEQxFzAVBgNVBAoTDkFudGhyb3BpYywgUEJDMSkwJwYDVQQDEyBBbnRocm9waWMgQ2xhdWRlIENvbnRlbnQgU2lnbmluZzBZMBMGByqGSM49AgEGCCqGSM49AwEHA0IABJh6CmvLUBgFFNU0vUKlOVtE6djd17L5SuwX0LemFisBM3dkd/3cyjxFA3Qo5S46fX0/ihY0VZ7mfb9KF703t5OjWDBWMA4GA1UdDwEB/wQEAwIHgDAVBgNVHSUEDjAMBgorBgEEAYPoXgIBMAwGA1UdEwEB/wQCMAAwHwYDVR0jBBgwFoAUzlHiBIFOZFsj+OPEz5o+nMHXXMIwCgYIKoZIzj0EAwMDZwAwZAIwMXMdFJ4BetLLVY7ORuE9noqbbAZOZn/aArXyTwFAZfKrPzxF2vPoJNf1+UCdg1XGAjBwX1zd9WGqYkqmL5SFqw1QySjr1zJfpJM9+1rdDwSPLMOPOjKuiXjoU/pUUeG9RwmhY3BhZFkNngAAAAAAAAAAAAAAAAAAAAAAAAAAAAAAAAAAAAAAAAAAAAAAAAAAAAAAAAAAAAAAAAAAAAAAAAAAAAAAAAAAAAAAAAAAAAAAAAAAAAAAAAAAAAAAAAAAAAAAAAAAAAAAAAAAAAAAAAAAAAAAAAAAAAAAAAAAAAAAAAAAAAAAAAAAAAAAAAAAAAAAAAAAAAAAAAAAAAAAAAAAAAAAAAAAAAAAAAAAAAAAAAAAAAAAAAAAAAAAAAAAAAAAAAAAAAAAAAAAAAAAAAAAAAAAAAAAAAAAAAAAAAAAAAAAAAAAAAAAAAAAAAAAAAAAAAAAAAAAAAAAAAAAAAAAAAAAAAAAAAAAAAAAAAAAAAAAAAAAAAAAAAAAAAAAAAAAAAAAAAAAAAAAAAAAAAAAAAAAAAAAAAAAAAAAAAAAAAAAAAAAAAAAAAAAAAAAAAAAAAAAAAAAAAAAAAAAAAAAAAAAAAAAAAAAAAAAAAAAAAAAAAAAAAAAAAAAAAAAAAAAAAAAAAAAAAAAAAAAAAAAAAAAAAAAAAAAAAAAAAAAAAAAAAAAAAAAAAAAAAAAAAAAAAAAAAAAAAAAAAAAAAAAAAAAAAAAAAAAAAAAAAAAAAAAAAAAAAAAAAAAAAAAAAAAAAAAAAAAAAAAAAAAAAAAAAAAAAAAAAAAAAAAAAAAAAAAAAAAAAAAAAAAAAAAAAAAAAAAAAAAAAAAAAAAAAAAAAAAAAAAAAAAAAAAAAAAAAAAAAAAAAAAAAAAAAAAAAAAAAAAAAAAAAAAAAAAAAAAAAAAAAAAAAAAAAAAAAAAAAAAAAAAAAAAAAAAAAAAAAAAAAAAAAAAAAAAAAAAAAAAAAAAAAAAAAAAAAAAAAAAAAAAAAAAAAAAAAAAAAAAAAAAAAAAAAAAAAAAAAAAAAAAAAAAAAAAAAAAAAAAAAAAAAAAAAAAAAAAAAAAAAAAAAAAAAAAAAAAAAAAAAAAAAAAAAAAAAAAAAAAAAAAAAAAAAAAAAAAAAAAAAAAAAAAAAAAAAAAAAAAAAAAAAAAAAAAAAAAAAAAAAAAAAAAAAAAAAAAAAAAAAAAAAAAAAAAAAAAAAAAAAAAAAAAAAAAAAAAAAAAAAAAAAAAAAAAAAAAAAAAAAAAAAAAAAAAAAAAAAAAAAAAAAAAAAAAAAAAAAAAAAAAAAAAAAAAAAAAAAAAAAAAAAAAAAAAAAAAAAAAAAAAAAAAAAAAAAAAAAAAAAAAAAAAAAAAAAAAAAAAAAAAAAAAAAAAAAAAAAAAAAAAAAAAAAAAAAAAAAAAAAAAAAAAAAAAAAAAAAAAAAAAAAAAAAAAAAAAAAAAAAAAAAAAAAAAAAAAAAAAAAAAAAAAAAAAAAAAAAAAAAAAAAAAAAAAAAAAAAAAAAAAAAAAAAAAAAAAAAAAAAAAAAAAAAAAAAAAAAAAAAAAAAAAAAAAAAAAAAAAAAAAAAAAAAAAAAAAAAAAAAAAAAAAAAAAAAAAAAAAAAAAAAAAAAAAAAAAAAAAAAAAAAAAAAAAAAAAAAAAAAAAAAAAAAAAAAAAAAAAAAAAAAAAAAAAAAAAAAAAAAAAAAAAAAAAAAAAAAAAAAAAAAAAAAAAAAAAAAAAAAAAAAAAAAAAAAAAAAAAAAAAAAAAAAAAAAAAAAAAAAAAAAAAAAAAAAAAAAAAAAAAAAAAAAAAAAAAAAAAAAAAAAAAAAAAAAAAAAAAAAAAAAAAAAAAAAAAAAAAAAAAAAAAAAAAAAAAAAAAAAAAAAAAAAAAAAAAAAAAAAAAAAAAAAAAAAAAAAAAAAAAAAAAAAAAAAAAAAAAAAAAAAAAAAAAAAAAAAAAAAAAAAAAAAAAAAAAAAAAAAAAAAAAAAAAAAAAAAAAAAAAAAAAAAAAAAAAAAAAAAAAAAAAAAAAAAAAAAAAAAAAAAAAAAAAAAAAAAAAAAAAAAAAAAAAAAAAAAAAAAAAAAAAAAAAAAAAAAAAAAAAAAAAAAAAAAAAAAAAAAAAAAAAAAAAAAAAAAAAAAAAAAAAAAAAAAAAAAAAAAAAAAAAAAAAAAAAAAAAAAAAAAAAAAAAAAAAAAAAAAAAAAAAAAAAAAAAAAAAAAAAAAAAAAAAAAAAAAAAAAAAAAAAAAAAAAAAAAAAAAAAAAAAAAAAAAAAAAAAAAAAAAAAAAAAAAAAAAAAAAAAAAAAAAAAAAAAAAAAAAAAAAAAAAAAAAAAAAAAAAAAAAAAAAAAAAAAAAAAAAAAAAAAAAAAAAAAAAAAAAAAAAAAAAAAAAAAAAAAAAAAAAAAAAAAAAAAAAAAAAAAAAAAAAAAAAAAAAAAAAAAAAAAAAAAAAAAAAAAAAAAAAAAAAAAAAAAAAAAAAAAAAAAAAAAAAAAAAAAAAAAAAAAAAAAAAAAAAAAAAAAAAAAAAAAAAAAAAAAAAAAAAAAAAAAAAAAAAAAAAAAAAAAAAAAAAAAAAAAAAAAAAAAAAAAAAAAAAAAAAAAAAAAAAAAAAAAAAAAAAAAAAAAAAAAAAAAAAAAAAAAAAAAAAAAAAAAAAAAAAAAAAAAAAAAAAAAAAAAAAAAAAAAAAAAAAAAAAAAAAAAAAAAAAAAAAAAAAAAAAAAAAAAAAAAAAAAAAAAAAAAAAAAAAAAAAAAAAAAAAAAAAAAAAAAAAAAAAAAAAAAAAAAAAAAAAAAAAAAAAAAAAAAAAAAAAAAAAAAAAAAAAAAAAAAAAAAAAAAAAAAAAAAAAAAAAAAAAAAAAAAAAAAAAAAAAAAAAAAAAAAAAAAAAAAAAAAAAAAAAAAAAAAAAAAAAAAAAAAAAAAAAAAAAAAAAAAAAAAAAAAAAAAAAAAAAAAAAAAAAAAAAAAAAAAAAAAAAAAAAAAAAAAAAAAAAAAAAAAAAAAAAAAAAAAAAAAAAAAAAAAAAAAAAAAAAAAAAAAAAAAAAAAAAAAAAAAAAAAAAAAAAAAAAAAAAAAAAAAAAAAAAAAAAAAAAAAAAAAAAAAAAAAAAAAAAAAAAAAAAAAAAAAAAAAAAAAAAAAAAAAAAAAAAAAAAAAAAAAAAAAAAAAAAAAAAAAAAAAAAAAAAAAAAAAAAAAAAAAAAAAAAAAAAAAAAAAAAAAAAAAAAAAAAAAAAAAAAAAAAAAAAAAAAAAAAAAAAAAAAAAAAAAAAAAAAAAAAAAAAAAAAAAAAAAAAAAAAAAAAAAAAAAAAAAAAAAAAAAAAAAAAAAAAAAAAAAAAAAAAAAAAAAAAAAAAAAAAAAAAAAAAAAAAAAAAAAAAAAAAAAAAAAAAAAAAAAAAAAAAAAAAAAAAAAAAAAAAAAAAAAAAAAAAAAAAAAAAAAAAAAAAAAAAAAAAAAAAAAAAAAAAAAAAAAAAAAAAAAAAAAAAAAAAAAAAAAAAAAAAAAAAAAAAAAAAAAAAAAAAAAAAAAAAAAAAAAAAAAAAAAAAAAAAAAAAAAAAAAAAAAAAAAAAAAAAAAAAAAAAAAAAAAAAAAAAAAAAAAAAAAAAAAAAAAAAAAAAAAAAAAAAAAAAAAAAAAAAAAAAAAAAAAAAAAAAAAAAAAAAAAAAAAAAAAAAAAAAAAAAAAAAAAAAAAAAAAAAAAAAAAAAAAAAAAAAAAAAAAAAAAAAAAAAAAAAAAAAAAAAAAAAAAAAAAAAAAAAAAAAAAAAAAAAAAAAAAAAAAAAAAAAAAAAAAAAAAAAAAAAAAAAAAAAAAAAAAAAAAAAAAAAAAAAAAAAAAAAAAAAAAAAAAAAAAAAAAAAAAAAAAAAAAAAAAAAAAAAAAAAAAAAAAAAAAAAAAAAAAAAAAAAAAAAAAAAAAAAAAAAAAAAAAAAAAAAAAAAAAAAAAAAAAAAAAAAAAAAAAAAAAAAAAAAAAAAAAAAAAAAAAAAAAAAAAAAAAAAAAAAAAAAAAAAAAAAAAAAAAAAAAAAAAAAAAAAAAAAAAAAAAAAAAAAAAAAAAAAAAAAAAAAAAAAAAAAAAAAAAAAAAAAAAAAAAAAAAAAAAAAAAAAAAAAAAAAAAAAAAAAAAAAAAAAAAAAAAAAAAAAAAAAAAAAAAAAAAAAAAAAAAAAAAAAAAAAAAAAAAAAAAAAAAAAAAAAAAAAAAAAAAAAAAAAAAAAAAAAAAAAAAAAAAAAAAAAAAAAAAAAAAAAAAAAAAAAAAAAAAAAAAAAAAAAAAAAAAAAAAAAAAAAAAAAAAAAAAAAAAAAAAAAAAAAAAAAAAAAAAAAAAAAAAAAAAAAAAAAAAAAAAAAAAAAAAAAAAAAAAAAAAAAAAAAAAAAAAAAAAAAAAAAAAAAAAAAAAAAAAAAAAAAAAAAAAAAAAAAAAAAAAAAAAAAAAAAAAAAAAAAAAAAAAAAAAAAAAAAAAAAAAAAAAAAAAAAAAAAAAAAAAAAAAAAAAAAAAAAAAAAAAAAAAAAAAAAAAAAAAAAAAAAAAAAAAAAAAAAAAAAAAAAAAAAAAAAAAAAAAAAAAAAAAAAAAAAAAAAAAAAAAAAAAAAAAAAAAAAAAAAAAAAAAAAAAAAAAAAAAAAAAAAAAAAAAAAAAAAAAAAAAAAAAAAAAAAAAAAAAAAAAAAAAAAAAAAAAAAAAAAAAAAAAAAAAAAAAAAAAAAAAAAAAAAAAAAAAAAAAAAAAAAAAAAAAAAAAAAAAAAAAAAAAAAAAAAAAAAAAAAAAAAAAAAAAAAAAAAAAAAAAAPZYQDcc/gr+HQ8RSGuN752OZh63hoWg1UmHWZRLcGKags/7mY77U7oW323LIjfdDlM3o6HVYZHNIX+CHp594yotVco=</c2pa:manifest></metadata><path d="M 200 200 L 200.00 120.00 A 80 80 0 0 1 276.08 224.72 Z" fill="#a1d072"/><path d="M 200 200 L 276.08 224.72 A 80 80 0 0 1 200.00 280.00 Z" fill="#74b345"/><path d="M 200 200 L 200.00 280.00 A 80 80 0 0 1 123.92 175.28 Z" fill="#badd90"/><path d="M 200 200 L 123.92 175.28 A 80 80 0 0 1 200.00 120.00 Z" fill="#63a338"/><path d="M 200.00 120.00 L 200.00 70.00 A 130 130 0 0 1 200.00 330.00 L 200.00 280.00 A 80 80 0 0 0 200.00 120.00 Z" fill="#89c257"/><path d="M 200.00 280.00 L 200.00 330.00 A 130 130 0 0 1 76.36 159.83 L 123.92 175.28 A 80 80 0 0 0 200.00 280.00 Z" fill="#d3e8b0"/><path d="M 123.92 175.28 L 76.36 159.83 A 130 130 0 0 1 200.00 70.00 L 200.00 120.00 A 80 80 0 0 0 123.92 175.28 Z" fill="#54922e"/><path d="M 200.00 70.00 L 200.00 15.00 A 185 185 0 0 1 360.21 292.50 L 312.58 265.00 A 130 130 0 0 0 200.00 70.00 Z" fill="#badd90"/><path d="M 312.58 265.00 L 360.21 292.50 A 185 185 0 0 1 39.79 292.50 L 87.42 265.00 A 130 130 0 0 0 312.58 265.00 Z" fill="#89c257"/><path d="M 87.42 265.00 L 39.79 292.50 A 185 185 0 0 1 200.00 15.00 L 200.00 70.00 A 130 130 0 0 0 87.42 265.00 Z" fill="#63a338"/><path d="M 658.78 277.21 Q 641.26 285.74 622.41 290.03 Q 603.56 294.27 583.46 294.27 Q 538.05 294.27 511.52 268.88 Q 485.00 243.48 485.00 200.06 Q 485.00 156.13 511.99 130.93 Q 539.02 105.73 586.03 105.73 Q 604.14 105.73 620.73 109.16 Q 637.36 112.54 652.08 119.24 L 652.08 156.83 Q 636.89 148.22 621.86 143.97 Q 606.83 139.69 591.72 139.69 Q 563.75 139.69 548.60 155.35 Q 533.45 170.96 533.45 200.06 Q 533.45 228.88 548.06 244.61 Q 562.66 260.31 589.53 260.31 Q 596.86 260.31 603.13 259.41 Q 609.40 258.48 614.38 256.53 L 614.38 221.25 L 585.76 221.25 L 585.76 189.82 L 658.78 189.82 L 658.78 277.21 Z M 766.63 189.58 Q 781.36 189.58 787.74 184.13 Q 794.13 178.64 794.13 166.10 Q 794.13 153.67 787.74 148.34 Q 781.36 142.96 766.63 142.96 L 746.93 142.96 L 746.93 189.58 L 766.63 189.58 Z M 746.93 221.95 L 746.93 290.73 L 700.07 290.73 L 700.07 109.00 L 771.62 109.00 Q 807.53 109.00 824.24 121.07 Q 840.98 133.11 840.98 159.16 Q 840.98 177.16 832.26 188.72 Q 823.57 200.29 806.05 205.78 Q 815.67 207.96 823.26 215.72 Q 830.90 223.43 838.69 239.12 L 864.12 290.73 L 814.23 290.73 L 792.07 245.59 Q 785.37 231.96 778.47 226.97 Q 771.62 221.95 760.17 221.95 L 746.93 221.95 Z M 892.01 109.00 L 1018.43 109.00 L 1018.43 144.44 L 938.86 144.44 L 938.86 178.25 L 1013.72 178.25 L 1013.72 213.69 L 938.86 213.69 L 938.86 255.32 L 1021.12 255.32 L 1021.12 290.73 L 892.01 290.73 L 892.01 109.00 Z M 1062.28 109.00 L 1188.71 109.00 L 1188.71 144.44 L 1109.14 144.44 L 1109.14 178.25 L 1183.99 178.25 L 1183.99 213.69 L 1109.14 213.69 L 1109.14 255.32 L 1191.39 255.32 L 1191.39 290.73 L 1062.28 290.73 L 1062.28 109.00 Z M 1232.56 109.00 L 1284.86 109.00 L 1350.96 233.63 L 1350.96 109.00 L 1395.39 109.00 L 1395.39 290.73 L 1343.05 290.73 L 1276.96 166.10 L 1276.96 290.73 L 1232.56 290.73 L 1232.56 109.00 Z M 1441.17 109.00 L 1567.59 109.00 L 1567.59 144.44 L 1488.02 144.44 L 1488.02 178.25 L 1562.88 178.25 L 1562.88 213.69 L 1488.02 213.69 L 1488.02 290.73 L 1441.17 290.73 L 1441.17 109.00 Z M 1611.44 109.00 L 1658.29 109.00 L 1658.29 290.73 L 1611.44 290.73 L 1611.44 109.00 Z M 1704.18 109.00 L 1830.61 109.00 L 1830.61 144.44 L 1751.04 144.44 L 1751.04 178.25 L 1825.89 178.25 L 1825.89 213.69 L 1751.04 213.69 L 1751.04 255.32 L 1833.29 255.32 L 1833.29 290.73 L 1704.18 290.73 L 1704.18 109.00 Z M 1874.46 109.00 L 1921.31 109.00 L 1921.31 255.32 L 2003.57 255.32 L 2003.57 290.73 L 1874.46 290.73 L 1874.46 109.00 Z M 2080.14 144.44 L 2080.14 255.32 L 2096.93 255.32 Q 2125.63 255.32 2140.78 241.07 Q 2155.97 226.82 2155.97 199.67 Q 2155.97 172.68 2140.86 158.58 Q 2125.79 144.44 2096.93 144.44 L 2080.14 144.44 Z M 2033.29 109.00 L 2082.67 109.00 Q 2124.08 109.00 2144.33 114.92 Q 2164.58 120.80 2179.07 134.94 Q 2191.84 147.25 2198.04 163.33 Q 2204.27 179.38 2204.27 199.67 Q 2204.27 220.27 2198.04 236.40 Q 2191.84 252.52 2179.07 264.79 Q 2164.46 278.93 2144.02 284.85 Q 2123.57 290.73 2082.67 290.73 L 2033.29 290.73 L 2033.29 109.00 Z" fill="#63a338" stroke="#63a338" stroke-width="12" stroke-linejoin="round" stroke-linecap="round" fill-rule="nonzero"/></svg>